<mxfile host="Electron" agent="Mozilla/5.0 (Macintosh; Intel Mac OS X 10_15_7) AppleWebKit/537.36 (KHTML, like Gecko) draw.io/26.0.9 Chrome/128.0.6613.186 Electron/32.2.5 Safari/537.36" version="26.0.9">
  <diagram name="Page-1" id="03018318-947c-dd8e-b7a3-06fadd420f32">
    <mxGraphModel dx="1306" dy="812" grid="1" gridSize="10" guides="1" tooltips="1" connect="1" arrows="1" fold="1" page="1" pageScale="1" pageWidth="1100" pageHeight="850" background="none" math="0" shadow="0">
      <root>
        <mxCell id="0" />
        <mxCell id="1" parent="0" />
        <mxCell id="677b7b8949515195-1" value="" style="whiteSpace=wrap;html=1;rounded=0;shadow=0;labelBackgroundColor=none;strokeColor=#000000;strokeWidth=1;fillColor=none;fontFamily=Verdana;fontSize=12;fontColor=#000000;align=center;comic=1;" parent="1" vertex="1">
          <mxGeometry x="20" y="20" width="1060" height="700" as="geometry" />
        </mxCell>
        <mxCell id="677b7b8949515195-8" value="" style="whiteSpace=wrap;html=1;rounded=0;shadow=0;labelBackgroundColor=none;strokeWidth=1;fillColor=none;fontFamily=Verdana;fontSize=12;align=center;comic=1;" parent="1" vertex="1">
          <mxGeometry x="30" y="110" width="200" height="590" as="geometry" />
        </mxCell>
        <mxCell id="VX7WvCrmsj9iTQPITb5o-9" value="" style="group;fontFamily=Comic Sans MS;" parent="1" vertex="1" connectable="0">
          <mxGeometry x="81.05" y="660" width="80" height="20" as="geometry" />
        </mxCell>
        <mxCell id="VX7WvCrmsj9iTQPITb5o-11" value="&lt;font face=&quot;Comic Sans MS&quot;&gt;Профиль&lt;/font&gt;" style="text;html=1;points=[];align=left;verticalAlign=top;spacingTop=-4;fontSize=14;fontFamily=Verdana" parent="VX7WvCrmsj9iTQPITb5o-9" vertex="1">
          <mxGeometry x="12" width="68.00000000000001" height="20" as="geometry" />
        </mxCell>
        <mxCell id="VX7WvCrmsj9iTQPITb5o-25" value="" style="group;fontColor=#FFFFFF;" parent="1" vertex="1" connectable="0">
          <mxGeometry x="31" y="36" width="1040" height="65" as="geometry" />
        </mxCell>
        <mxCell id="VX7WvCrmsj9iTQPITb5o-15" value="" style="whiteSpace=wrap;html=1;rounded=0;shadow=0;labelBackgroundColor=none;strokeWidth=1;fillColor=#647687;fontFamily=Verdana;fontSize=12;align=center;comic=1;fontColor=#ffffff;strokeColor=#314354;" parent="VX7WvCrmsj9iTQPITb5o-25" vertex="1">
          <mxGeometry width="1040" height="65" as="geometry" />
        </mxCell>
        <mxCell id="VX7WvCrmsj9iTQPITb5o-33" value="&lt;font style=&quot;font-size: 26px; color: rgb(255, 255, 255);&quot;&gt;AI Ассистенты&lt;/font&gt;" style="text;html=1;align=center;verticalAlign=middle;whiteSpace=wrap;rounded=0;fontFamily=Helvetica;fontSize=12;fontColor=default;" parent="VX7WvCrmsj9iTQPITb5o-25" vertex="1">
          <mxGeometry x="478" y="16" width="300" height="30" as="geometry" />
        </mxCell>
        <mxCell id="VX7WvCrmsj9iTQPITb5o-16" value="Sentralix" style="text;html=1;align=center;verticalAlign=middle;whiteSpace=wrap;rounded=0;fontSize=26;fillColor=#647687;fontColor=#ffffff;strokeColor=none;" parent="VX7WvCrmsj9iTQPITb5o-25" vertex="1">
          <mxGeometry x="60" y="16" width="100" height="29" as="geometry" />
        </mxCell>
        <mxCell id="VX7WvCrmsj9iTQPITb5o-19" value="" style="line;strokeWidth=4;html=1;perimeter=backbonePerimeter;points=[];outlineConnect=0;strokeColor=#FFFFFF;" parent="VX7WvCrmsj9iTQPITb5o-25" vertex="1">
          <mxGeometry x="20" y="18.5" width="30" height="10" as="geometry" />
        </mxCell>
        <mxCell id="VX7WvCrmsj9iTQPITb5o-20" value="" style="line;strokeWidth=4;html=1;perimeter=backbonePerimeter;points=[];outlineConnect=0;strokeColor=#FFFFFF;" parent="VX7WvCrmsj9iTQPITb5o-25" vertex="1">
          <mxGeometry x="20" y="27.5" width="30" height="10" as="geometry" />
        </mxCell>
        <mxCell id="VX7WvCrmsj9iTQPITb5o-21" value="" style="line;strokeWidth=4;html=1;perimeter=backbonePerimeter;points=[];outlineConnect=0;strokeColor=#FFFFFF;" parent="VX7WvCrmsj9iTQPITb5o-25" vertex="1">
          <mxGeometry x="20" y="36.5" width="30" height="10" as="geometry" />
        </mxCell>
        <mxCell id="VX7WvCrmsj9iTQPITb5o-32" value="" style="shape=image;editableCssRules=.*;verticalLabelPosition=bottom;labelBackgroundColor=none;verticalAlign=top;aspect=fixed;imageAspect=0;image=data:image/svg+xml,PHN2ZyB4bWxucz0iaHR0cDovL3d3dy53My5vcmcvMjAwMC9zdmciIHZpZXdCb3g9Ii0wLjUgLTAuNSAyOCAyOCIgaGVpZ2h0PSIyOCIgd2lkdGg9IjI4Ij4mI3hhOwkgIDxzdHlsZSB0eXBlPSJ0ZXh0L2NzcyI+LnN0MCB7IHN0b3AtY29sb3I6IHJnYig5MSwgMTE1LCAxMzkpOyB9IC5zdDEgeyBzdG9wLWNvbG9yOiByZ2IoMzQsIDUzLCA3Mik7IH0gPC9zdHlsZT4mI3hhOwk8ZGVmcz4mI3hhOwkJPGxpbmVhckdyYWRpZW50IGdyYWRpZW50VW5pdHM9InVzZXJTcGFjZU9uVXNlIiB5Mj0iMjUuMzA5IiB4Mj0iMjMuNDU0IiB5MT0iMy40NzQiIHgxPSIyLjAzOSIgaWQ9IkEiPiYjeGE7CQkJPHN0b3AgY2xhc3M9InN0MCIvPiYjeGE7CQkJPHN0b3AgY2xhc3M9InN0MSIgb2Zmc2V0PSIxIi8+JiN4YTsJCTwvbGluZWFyR3JhZGllbnQ+JiN4YTsJPC9kZWZzPiYjeGE7CTxwYXRoIGZpbGw9InVybCgjQSkiIGQ9Ik0tLjUgMTMuNDcyYzAtMS45My4zNzEtMy43MyAxLjExMy01LjQuNzQyLTEuNzA3IDEuNzQ0LTMuMTkyIDMuMDA2LTQuNDUzUzYuMzY1IDEuMzU2IDguMDczLjYxMyAxMS41OTgtLjUgMTMuNTI4LS41czMuNzMuMzcxIDUuNCAxLjExM2MxLjcwNy43NDIgMy4xOTIgMS43NDQgNC40NTMgMy4wMDZzMi4yNjQgMi43NDYgMy4wMDYgNC40NTNjLjc0MiAxLjY3IDEuMTEzIDMuNDcgMS4xMTMgNS40cy0uMzcxIDMuNzQ4LTEuMTEzIDUuNDU1LTEuNzQ0IDMuMTkyLTMuMDA2IDQuNDUzYTE0LjI4IDE0LjI4IDAgMCAxLTQuNDUzIDMuMDA2Yy0xLjY3Ljc0Mi0zLjQ3IDEuMTEzLTUuNCAxLjExM3MtMy43NDgtLjM3MS01LjQ1NS0xLjExM2ExNC4yOCAxNC4yOCAwIDAgMS00LjQ1My0zLjAwNiAxNC4yOCAxNC4yOCAwIDAgMS0zLjAwNi00LjQ1M0MtLjEyOSAxNy4yMi0uNSAxNS40MDItLjUgMTMuNDcyem0xNi44MTEgNC4yMzFhNi42NSA2LjY1IDAgMCAxIDMuMjg0LjgzNWMxLjAwMi41MiAxLjgxOCAxLjI0MyAyLjQ0OSAyLjE3MWExMC4xNCAxMC4xNCAwIDAgMCAxLjk0OC0zLjI4NGMuNDgyLTEuMjI1LjcyNC0yLjU0Mi43MjQtMy45NTIgMC0xLjU1OS0uMjk3LTMuMDA2LS44OTEtNC4zNDItLjU5NC0xLjM3My0xLjM5Mi0yLjU2MS0yLjM5NC0zLjU2M3MtMi4xOS0xLjgtMy41NjMtMi4zOTRjLTEuMzM2LS41OTQtMi43ODMtLjg5MS00LjM0Mi0uODkxcy0zLjAyNC4yOTctNC4zOTguODkxYy0xLjMzNi41OTQtMi41MjQgMS4zOTItMy41NjMgMi4zOTRBMTEuMzUgMTEuMzUgMCAwIDAgMy4xNzQgOS4xM2MtLjU5NCAxLjMzNi0uODkxIDIuNzgzLS44OTEgNC4zNDIgMCAxLjQxLjIyMyAyLjcyOC42NjggMy45NTIuNDgyIDEuMjI1IDEuMTUgMi4zMTkgMi4wMDQgMy4yODQuNjMxLS45MjggMS40NDctMS42NTEgMi40NDktMi4xNzFhNi42NSA2LjY1IDAgMCAxIDMuMjg0LS44MzV6bTIuNzgzLTcuMDE0YTUuNjggNS42OCAwIDAgMS0uNDQ1IDIuMjI3IDUuODcgNS44NyAwIDAgMS0xLjIyNSAxLjc4MWMtLjQ4Mi40ODItMS4wNTguODcyLTEuNzI2IDEuMTY5cy0xLjM5Mi40NDUtMi4xNzEuNDQ1YTUuNjggNS42OCAwIDAgMS0yLjIyNy0uNDQ1IDYuNDQgNi40NCAwIDAgMS0xLjc4MS0xLjE2OSA2LjQ0IDYuNDQgMCAwIDEtMS4xNjktMS43ODEgNS42OCA1LjY4IDAgMCAxLS40NDUtMi4yMjdjMC0uNzc5LjE0OC0xLjUwMy40NDUtMi4xNzFBNi40NCA2LjQ0IDAgMCAxIDkuNTIgNi43MzdhNS44NyA1Ljg3IDAgMCAxIDEuNzgxLTEuMjI1IDUuNjggNS42OCAwIDAgMSAyLjIyNy0uNDQ1Yy43NzkgMCAxLjUwMy4xNDggMi4xNzEuNDQ1czEuMjQzLjcwNSAxLjcyNiAxLjIyNWE1Ljg3IDUuODcgMCAwIDEgMS4yMjUgMS43ODFjLjI5Ny42NjguNDQ1IDEuMzkyLjQ0NSAyLjE3MXptLTIuNzgzIDBjMC0uNzc5LS4yNzgtMS40MjktLjgzNS0xLjk0OC0uNTU3LS41NTctMS4yMDYtLjgzNS0xLjk0OC0uODM1YTIuNzMgMi43MyAwIDAgMC0yLjAwNC44MzVjLS41NTcuNTItLjgzNSAxLjE2OS0uODM1IDEuOTQ4YTIuNzMgMi43MyAwIDAgMCAuODM1IDIuMDA0Yy41NTcuNTIgMS4yMjUuNzc5IDIuMDA0Ljc3OS43NDIgMCAxLjM5Mi0uMjYgMS45NDgtLjc3OWEyLjczIDIuNzMgMCAwIDAgLjgzNS0yLjAwNHpNNy4wNzEgMjIuNjU3Yy44OTEuNjMxIDEuODc0IDEuMTMyIDIuOTUgMS41MDMgMS4xMTMuMzcxIDIuMjgyLjU1NyAzLjUwNy41NTcgMS4xODggMCAyLjMxOS0uMTg2IDMuMzk2LS41NTcgMS4xMTMtLjM3MSAyLjExNS0uODcyIDMuMDA2LTEuNTAzLS4zNzEtLjY2OC0uODkxLTEuMTg4LTEuNTU5LTEuNTU5LS42MzEtLjQwOC0xLjMxNy0uNjEyLTIuMDYtLjYxMmgtNS42MjJjLS43NDIgMC0xLjQ0Ny4yMDQtMi4xMTUuNjEyLS42MzEuMzcxLTEuMTMyLjg5MS0xLjUwMyAxLjU1OXoiLz4mI3hhOzwvc3ZnPg==;fontSize=14;fontStyle=1;fontColor=#1D2D3E;pointerEvents=0;align=center;fontFamily=Helvetica;fillColor=none;gradientColor=none;" parent="1" vertex="1">
          <mxGeometry x="50" y="656.5" width="27" height="27" as="geometry" />
        </mxCell>
        <mxCell id="VX7WvCrmsj9iTQPITb5o-34" value="" style="whiteSpace=wrap;html=1;rounded=0;shadow=0;labelBackgroundColor=none;strokeWidth=1;fillColor=none;fontFamily=Verdana;fontSize=12;align=center;comic=1;" parent="1" vertex="1">
          <mxGeometry x="240" y="109" width="830" height="591" as="geometry" />
        </mxCell>
        <mxCell id="INDhxPRTLH_QmF5-pgII-14" value="" style="sketch=0;html=1;verticalAlign=top;labelPosition=center;verticalLabelPosition=bottom;align=center;spacingTop=-6;fontSize=11;fontStyle=1;fontColor=#999999;shape=image;aspect=fixed;imageAspect=0;image=data:image/svg+xml,PHN2ZyB4bWxucz0iaHR0cDovL3d3dy53My5vcmcvMjAwMC9zdmciIGlkPSJzdmcxNzUwNCIgdmVyc2lvbj0iMS4xIiB2aWV3Qm94PSIwIDAgMTM5LjUyMjcyIDE4My42MDg4NCIgaGVpZ2h0PSIxODMuNjA4ODRtbSIgd2lkdGg9IjEzOS41MjI3Mm1tIj4mI3hhOyAgJiN4YTsgIDxkZWZzIGlkPSJkZWZzMTc1MDEiLz4mI3hhOyAgPGcgdHJhbnNmb3JtPSJ0cmFuc2xhdGUoLTM1Ljg0NDkwNSwtNTUuNTYzODk1KSIgaWQ9ImxheWVyMSI+JiN4YTsgICAgPHBhdGggaWQ9InBhdGgxNzY1OCIgZD0iTSA3Mi45MDAzNzcsMjAzLjU0MjE4IDQyLjkzNDMwNCwxODYuMTU4OCBjIC00Ljg3OTA1OCwtMy41NjYxMiAtNy4wODkzOTksLTQuMjA5MzQgLTcuMDg5Mzk5LC0xMy43NDM5MSB2IC03MC4xNDYyNyBjIDAsLTUuNTU3OTcxIDEuMzc2MTMxLC04Ljg1NjM0MyA3LjIwMjk5MSwtMTEuOTg0ODY4IEwgOTguNjUxODcxLDU3LjQzNTA2MyBjIDMuOTE5MTA5LC0xLjg5NDE0MSA5LjQ3MDE3OSwtMi45NzU3NzkgMTMuNjgzNTM5LC0wLjEzMjQxNSBsIDU2Ljk1MDg0LDMzLjMzMjkxMiBjIDQuNTY1NDgsMy40NjgzMjEgNS45NjA5OSw2Ljc5NzUwOCA2LjA4MTM3LDEyLjE1ODgzIHYgNzEuMzQxODkgYyAwLDYuNDIwMDQgLTEuODkyMTksOS4yODg3MSAtNS41OTMyNCwxMS4wNzY3OCBsIC04OC44NTM3OTYsNTIuNDc5MjMgYyAtNS42NTc1NywzLjIxMTE3IC03LjgxMjMwOCwwLjc2MDM2IC04LjAyMDIwNywtMy4xNzAxNiB6IiBzdHlsZT0ib3BhY2l0eToxO2ZpbGw6IzQyODVmNDtmaWxsLW9wYWNpdHk6MTtzdHJva2U6bm9uZTtzdHJva2Utd2lkdGg6MC4yNjQ1ODNweDtzdHJva2UtbGluZWNhcDpidXR0O3N0cm9rZS1saW5lam9pbjptaXRlcjtzdHJva2Utb3BhY2l0eToxIi8+JiN4YTsgICAgPHBhdGggZD0ibSAxMTcuNjE5MTQsMTM3LjM5MDYyIHYgMzIuOTI1NzkgaCAyMS4yMzI0MiB2IC05IGggLTEyLjIzMjQyIHYgLTE0LjkyNTc5IGggMTIuMjMyNDIgdiAtOSB6IE0gMTA2LjA5Mzc1LDkyLjk4NjMyOCBjIC0yMS4wMTQ5MDUsMCAtMzkuMTg3NSwxNi42NjQ1MDIgLTM5LjE4NzUsMzUuODM1OTQyIHYgMjkuODIyMjYgbCAwLjAwMiwwLjAzNzEgYyAwLjA1MjIxLDMuMTY1NTEgMS4xMjA0NDEsNi4yNzIyNiAzLjI4NzEwOSw4LjY0NDUzIDIuMTY2NjY5LDIuMzcyMjcgNS40NjU2MTQsMy44Mzc4OSA5LjAxNzU3OSwzLjgzNzg5IEggOTMuNzMwNDY5IFYgMTM3LjYzMjgxIEggNzUuOTA2MjUgdiAtOC44MTA1NCBjIDAsLTEzLjE5NTA4IDE0LjA2OTI1NCwtMjYuODM1OTQgMzAuMTg3NSwtMjYuODM1OTQgMTYuNjE2MzIsMCAyOS40OTIxOSwxNC40NDUzNiAyOS40OTIxOSwyNi4yODMyIHYgNDYuMjUzOTEgaCAtMjUuODczMDUgdiA5IGggMzQuODczMDUgdiAtNTUuMjUzOTEgYyAwLC0xNy44NTA2MSAtMTYuODczNDUsLTM1LjI4MzIwMiAtMzguNDkyMTksLTM1LjI4MzIwMiB6IG0gLTMwLjE4NzUsNTMuNjQ2NDgyIGggOC44MjQyMTkgdiAxNS41MzEyNSBoIC01LjUxNzU3OCBjIC0xLjMwMTEzLDAgLTEuODY4NDQ2LC0wLjM1Mzc2IC0yLjM3MzA0NywtMC45MDYyNSAtMC41MDQ2MDIsLTAuNTUyNDggLTAuOTEyOTYsLTEuNDczNDYgLTAuOTMzNTk0LC0yLjcyNDYxIHoiIHN0eWxlPSJjb2xvcjojMDAwMDAwO29wYWNpdHk6MTtmaWxsOiNmZmZmZmY7LWlua3NjYXBlLXN0cm9rZTpub25lIiBpZD0icGF0aDE5NjU1Ii8+JiN4YTsgIDwvZz4mI3hhOzwvc3ZnPg==;" vertex="1" parent="1">
          <mxGeometry x="54.14" y="140" width="22.86" height="30" as="geometry" />
        </mxCell>
        <mxCell id="VX7WvCrmsj9iTQPITb5o-8" value="&lt;font face=&quot;Comic Sans MS&quot;&gt;AI Ассистенты&lt;/font&gt;" style="text;html=1;points=[];align=left;verticalAlign=top;spacingTop=-4;fontSize=14;fontFamily=Verdana" parent="1" vertex="1">
          <mxGeometry x="82.11" y="140" width="110" height="20" as="geometry" />
        </mxCell>
        <mxCell id="INDhxPRTLH_QmF5-pgII-18" value="" style="group" vertex="1" connectable="0" parent="1">
          <mxGeometry x="530" y="140" width="219" height="130" as="geometry" />
        </mxCell>
        <mxCell id="INDhxPRTLH_QmF5-pgII-16" value="" style="rounded=1;whiteSpace=wrap;html=1;" vertex="1" parent="INDhxPRTLH_QmF5-pgII-18">
          <mxGeometry width="219" height="130" as="geometry" />
        </mxCell>
        <mxCell id="INDhxPRTLH_QmF5-pgII-15" value="" style="sketch=0;html=1;verticalAlign=top;labelPosition=center;verticalLabelPosition=bottom;align=center;spacingTop=-6;fontSize=11;fontStyle=1;fontColor=#999999;shape=image;aspect=fixed;imageAspect=0;image=data:image/svg+xml,PHN2ZyB4bWxucz0iaHR0cDovL3d3dy53My5vcmcvMjAwMC9zdmciIGlkPSJzdmcxNzUwNCIgdmVyc2lvbj0iMS4xIiB2aWV3Qm94PSIwIDAgMTM5LjUyMjcyIDE4My42MDg4NCIgaGVpZ2h0PSIxODMuNjA4ODRtbSIgd2lkdGg9IjEzOS41MjI3Mm1tIj4mI3hhOyAgJiN4YTsgIDxkZWZzIGlkPSJkZWZzMTc1MDEiLz4mI3hhOyAgPGcgdHJhbnNmb3JtPSJ0cmFuc2xhdGUoLTM1Ljg0NDkwNSwtNTUuNTYzODk1KSIgaWQ9ImxheWVyMSI+JiN4YTsgICAgPHBhdGggaWQ9InBhdGgxNzY1OCIgZD0iTSA3Mi45MDAzNzcsMjAzLjU0MjE4IDQyLjkzNDMwNCwxODYuMTU4OCBjIC00Ljg3OTA1OCwtMy41NjYxMiAtNy4wODkzOTksLTQuMjA5MzQgLTcuMDg5Mzk5LC0xMy43NDM5MSB2IC03MC4xNDYyNyBjIDAsLTUuNTU3OTcxIDEuMzc2MTMxLC04Ljg1NjM0MyA3LjIwMjk5MSwtMTEuOTg0ODY4IEwgOTguNjUxODcxLDU3LjQzNTA2MyBjIDMuOTE5MTA5LC0xLjg5NDE0MSA5LjQ3MDE3OSwtMi45NzU3NzkgMTMuNjgzNTM5LC0wLjEzMjQxNSBsIDU2Ljk1MDg0LDMzLjMzMjkxMiBjIDQuNTY1NDgsMy40NjgzMjEgNS45NjA5OSw2Ljc5NzUwOCA2LjA4MTM3LDEyLjE1ODgzIHYgNzEuMzQxODkgYyAwLDYuNDIwMDQgLTEuODkyMTksOS4yODg3MSAtNS41OTMyNCwxMS4wNzY3OCBsIC04OC44NTM3OTYsNTIuNDc5MjMgYyAtNS42NTc1NywzLjIxMTE3IC03LjgxMjMwOCwwLjc2MDM2IC04LjAyMDIwNywtMy4xNzAxNiB6IiBzdHlsZT0ib3BhY2l0eToxO2ZpbGw6IzQyODVmNDtmaWxsLW9wYWNpdHk6MTtzdHJva2U6bm9uZTtzdHJva2Utd2lkdGg6MC4yNjQ1ODNweDtzdHJva2UtbGluZWNhcDpidXR0O3N0cm9rZS1saW5lam9pbjptaXRlcjtzdHJva2Utb3BhY2l0eToxIi8+JiN4YTsgICAgPHBhdGggZD0ibSAxMTcuNjE5MTQsMTM3LjM5MDYyIHYgMzIuOTI1NzkgaCAyMS4yMzI0MiB2IC05IGggLTEyLjIzMjQyIHYgLTE0LjkyNTc5IGggMTIuMjMyNDIgdiAtOSB6IE0gMTA2LjA5Mzc1LDkyLjk4NjMyOCBjIC0yMS4wMTQ5MDUsMCAtMzkuMTg3NSwxNi42NjQ1MDIgLTM5LjE4NzUsMzUuODM1OTQyIHYgMjkuODIyMjYgbCAwLjAwMiwwLjAzNzEgYyAwLjA1MjIxLDMuMTY1NTEgMS4xMjA0NDEsNi4yNzIyNiAzLjI4NzEwOSw4LjY0NDUzIDIuMTY2NjY5LDIuMzcyMjcgNS40NjU2MTQsMy44Mzc4OSA5LjAxNzU3OSwzLjgzNzg5IEggOTMuNzMwNDY5IFYgMTM3LjYzMjgxIEggNzUuOTA2MjUgdiAtOC44MTA1NCBjIDAsLTEzLjE5NTA4IDE0LjA2OTI1NCwtMjYuODM1OTQgMzAuMTg3NSwtMjYuODM1OTQgMTYuNjE2MzIsMCAyOS40OTIxOSwxNC40NDUzNiAyOS40OTIxOSwyNi4yODMyIHYgNDYuMjUzOTEgaCAtMjUuODczMDUgdiA5IGggMzQuODczMDUgdiAtNTUuMjUzOTEgYyAwLC0xNy44NTA2MSAtMTYuODczNDUsLTM1LjI4MzIwMiAtMzguNDkyMTksLTM1LjI4MzIwMiB6IG0gLTMwLjE4NzUsNTMuNjQ2NDgyIGggOC44MjQyMTkgdiAxNS41MzEyNSBoIC01LjUxNzU3OCBjIC0xLjMwMTEzLDAgLTEuODY4NDQ2LC0wLjM1Mzc2IC0yLjM3MzA0NywtMC45MDYyNSAtMC41MDQ2MDIsLTAuNTUyNDggLTAuOTEyOTYsLTEuNDczNDYgLTAuOTMzNTk0LC0yLjcyNDYxIHoiIHN0eWxlPSJjb2xvcjojMDAwMDAwO29wYWNpdHk6MTtmaWxsOiNmZmZmZmY7LWlua3NjYXBlLXN0cm9rZTpub25lIiBpZD0icGF0aDE5NjU1Ii8+JiN4YTsgIDwvZz4mI3hhOzwvc3ZnPg==;" vertex="1" parent="INDhxPRTLH_QmF5-pgII-18">
          <mxGeometry x="11" y="19" width="22.86" height="30" as="geometry" />
        </mxCell>
        <mxCell id="INDhxPRTLH_QmF5-pgII-17" value="&lt;h1 style=&quot;margin-top: 0px;&quot;&gt;Екатерина&lt;/h1&gt;&lt;p&gt;Отвечает на звонки, консльтирует&lt;/p&gt;" style="text;html=1;whiteSpace=wrap;overflow=hidden;rounded=0;" vertex="1" parent="INDhxPRTLH_QmF5-pgII-18">
          <mxGeometry x="39" y="10" width="180" height="90" as="geometry" />
        </mxCell>
        <mxCell id="INDhxPRTLH_QmF5-pgII-32" value="" style="strokeColor=#999999;verticalLabelPosition=bottom;shadow=0;dashed=0;verticalAlign=top;strokeWidth=2;html=1;shape=mxgraph.mockup.misc.trashcanIcon;" vertex="1" parent="INDhxPRTLH_QmF5-pgII-18">
          <mxGeometry x="180" y="90" width="30" height="30" as="geometry" />
        </mxCell>
        <mxCell id="INDhxPRTLH_QmF5-pgII-19" value="" style="group" vertex="1" connectable="0" parent="1">
          <mxGeometry x="530" y="295" width="219" height="130" as="geometry" />
        </mxCell>
        <mxCell id="INDhxPRTLH_QmF5-pgII-20" value="" style="rounded=1;whiteSpace=wrap;html=1;" vertex="1" parent="INDhxPRTLH_QmF5-pgII-19">
          <mxGeometry width="219" height="130" as="geometry" />
        </mxCell>
        <mxCell id="INDhxPRTLH_QmF5-pgII-21" value="" style="sketch=0;html=1;verticalAlign=top;labelPosition=center;verticalLabelPosition=bottom;align=center;spacingTop=-6;fontSize=11;fontStyle=1;fontColor=#999999;shape=image;aspect=fixed;imageAspect=0;image=data:image/svg+xml,PHN2ZyB4bWxucz0iaHR0cDovL3d3dy53My5vcmcvMjAwMC9zdmciIGlkPSJzdmcxNzUwNCIgdmVyc2lvbj0iMS4xIiB2aWV3Qm94PSIwIDAgMTM5LjUyMjcyIDE4My42MDg4NCIgaGVpZ2h0PSIxODMuNjA4ODRtbSIgd2lkdGg9IjEzOS41MjI3Mm1tIj4mI3hhOyAgJiN4YTsgIDxkZWZzIGlkPSJkZWZzMTc1MDEiLz4mI3hhOyAgPGcgdHJhbnNmb3JtPSJ0cmFuc2xhdGUoLTM1Ljg0NDkwNSwtNTUuNTYzODk1KSIgaWQ9ImxheWVyMSI+JiN4YTsgICAgPHBhdGggaWQ9InBhdGgxNzY1OCIgZD0iTSA3Mi45MDAzNzcsMjAzLjU0MjE4IDQyLjkzNDMwNCwxODYuMTU4OCBjIC00Ljg3OTA1OCwtMy41NjYxMiAtNy4wODkzOTksLTQuMjA5MzQgLTcuMDg5Mzk5LC0xMy43NDM5MSB2IC03MC4xNDYyNyBjIDAsLTUuNTU3OTcxIDEuMzc2MTMxLC04Ljg1NjM0MyA3LjIwMjk5MSwtMTEuOTg0ODY4IEwgOTguNjUxODcxLDU3LjQzNTA2MyBjIDMuOTE5MTA5LC0xLjg5NDE0MSA5LjQ3MDE3OSwtMi45NzU3NzkgMTMuNjgzNTM5LC0wLjEzMjQxNSBsIDU2Ljk1MDg0LDMzLjMzMjkxMiBjIDQuNTY1NDgsMy40NjgzMjEgNS45NjA5OSw2Ljc5NzUwOCA2LjA4MTM3LDEyLjE1ODgzIHYgNzEuMzQxODkgYyAwLDYuNDIwMDQgLTEuODkyMTksOS4yODg3MSAtNS41OTMyNCwxMS4wNzY3OCBsIC04OC44NTM3OTYsNTIuNDc5MjMgYyAtNS42NTc1NywzLjIxMTE3IC03LjgxMjMwOCwwLjc2MDM2IC04LjAyMDIwNywtMy4xNzAxNiB6IiBzdHlsZT0ib3BhY2l0eToxO2ZpbGw6IzQyODVmNDtmaWxsLW9wYWNpdHk6MTtzdHJva2U6bm9uZTtzdHJva2Utd2lkdGg6MC4yNjQ1ODNweDtzdHJva2UtbGluZWNhcDpidXR0O3N0cm9rZS1saW5lam9pbjptaXRlcjtzdHJva2Utb3BhY2l0eToxIi8+JiN4YTsgICAgPHBhdGggZD0ibSAxMTcuNjE5MTQsMTM3LjM5MDYyIHYgMzIuOTI1NzkgaCAyMS4yMzI0MiB2IC05IGggLTEyLjIzMjQyIHYgLTE0LjkyNTc5IGggMTIuMjMyNDIgdiAtOSB6IE0gMTA2LjA5Mzc1LDkyLjk4NjMyOCBjIC0yMS4wMTQ5MDUsMCAtMzkuMTg3NSwxNi42NjQ1MDIgLTM5LjE4NzUsMzUuODM1OTQyIHYgMjkuODIyMjYgbCAwLjAwMiwwLjAzNzEgYyAwLjA1MjIxLDMuMTY1NTEgMS4xMjA0NDEsNi4yNzIyNiAzLjI4NzEwOSw4LjY0NDUzIDIuMTY2NjY5LDIuMzcyMjcgNS40NjU2MTQsMy44Mzc4OSA5LjAxNzU3OSwzLjgzNzg5IEggOTMuNzMwNDY5IFYgMTM3LjYzMjgxIEggNzUuOTA2MjUgdiAtOC44MTA1NCBjIDAsLTEzLjE5NTA4IDE0LjA2OTI1NCwtMjYuODM1OTQgMzAuMTg3NSwtMjYuODM1OTQgMTYuNjE2MzIsMCAyOS40OTIxOSwxNC40NDUzNiAyOS40OTIxOSwyNi4yODMyIHYgNDYuMjUzOTEgaCAtMjUuODczMDUgdiA5IGggMzQuODczMDUgdiAtNTUuMjUzOTEgYyAwLC0xNy44NTA2MSAtMTYuODczNDUsLTM1LjI4MzIwMiAtMzguNDkyMTksLTM1LjI4MzIwMiB6IG0gLTMwLjE4NzUsNTMuNjQ2NDgyIGggOC44MjQyMTkgdiAxNS41MzEyNSBoIC01LjUxNzU3OCBjIC0xLjMwMTEzLDAgLTEuODY4NDQ2LC0wLjM1Mzc2IC0yLjM3MzA0NywtMC45MDYyNSAtMC41MDQ2MDIsLTAuNTUyNDggLTAuOTEyOTYsLTEuNDczNDYgLTAuOTMzNTk0LC0yLjcyNDYxIHoiIHN0eWxlPSJjb2xvcjojMDAwMDAwO29wYWNpdHk6MTtmaWxsOiNmZmZmZmY7LWlua3NjYXBlLXN0cm9rZTpub25lIiBpZD0icGF0aDE5NjU1Ii8+JiN4YTsgIDwvZz4mI3hhOzwvc3ZnPg==;" vertex="1" parent="INDhxPRTLH_QmF5-pgII-19">
          <mxGeometry x="11" y="19" width="22.86" height="30" as="geometry" />
        </mxCell>
        <mxCell id="INDhxPRTLH_QmF5-pgII-22" value="&lt;h1 style=&quot;margin-top: 0px;&quot;&gt;Елена&lt;/h1&gt;&lt;p&gt;Отвечает на звонки, консльтирует&lt;/p&gt;" style="text;html=1;whiteSpace=wrap;overflow=hidden;rounded=0;" vertex="1" parent="INDhxPRTLH_QmF5-pgII-19">
          <mxGeometry x="39" y="10" width="180" height="90" as="geometry" />
        </mxCell>
        <mxCell id="INDhxPRTLH_QmF5-pgII-33" value="" style="strokeColor=#999999;verticalLabelPosition=bottom;shadow=0;dashed=0;verticalAlign=top;strokeWidth=2;html=1;shape=mxgraph.mockup.misc.trashcanIcon;" vertex="1" parent="INDhxPRTLH_QmF5-pgII-19">
          <mxGeometry x="180" y="85" width="30" height="30" as="geometry" />
        </mxCell>
        <mxCell id="INDhxPRTLH_QmF5-pgII-23" value="" style="group" vertex="1" connectable="0" parent="1">
          <mxGeometry x="530" y="450" width="219" height="130" as="geometry" />
        </mxCell>
        <mxCell id="INDhxPRTLH_QmF5-pgII-24" value="" style="rounded=1;whiteSpace=wrap;html=1;" vertex="1" parent="INDhxPRTLH_QmF5-pgII-23">
          <mxGeometry width="219" height="130" as="geometry" />
        </mxCell>
        <mxCell id="INDhxPRTLH_QmF5-pgII-25" value="" style="sketch=0;html=1;verticalAlign=top;labelPosition=center;verticalLabelPosition=bottom;align=center;spacingTop=-6;fontSize=11;fontStyle=1;fontColor=#999999;shape=image;aspect=fixed;imageAspect=0;image=data:image/svg+xml,PHN2ZyB4bWxucz0iaHR0cDovL3d3dy53My5vcmcvMjAwMC9zdmciIGlkPSJzdmcxNzUwNCIgdmVyc2lvbj0iMS4xIiB2aWV3Qm94PSIwIDAgMTM5LjUyMjcyIDE4My42MDg4NCIgaGVpZ2h0PSIxODMuNjA4ODRtbSIgd2lkdGg9IjEzOS41MjI3Mm1tIj4mI3hhOyAgJiN4YTsgIDxkZWZzIGlkPSJkZWZzMTc1MDEiLz4mI3hhOyAgPGcgdHJhbnNmb3JtPSJ0cmFuc2xhdGUoLTM1Ljg0NDkwNSwtNTUuNTYzODk1KSIgaWQ9ImxheWVyMSI+JiN4YTsgICAgPHBhdGggaWQ9InBhdGgxNzY1OCIgZD0iTSA3Mi45MDAzNzcsMjAzLjU0MjE4IDQyLjkzNDMwNCwxODYuMTU4OCBjIC00Ljg3OTA1OCwtMy41NjYxMiAtNy4wODkzOTksLTQuMjA5MzQgLTcuMDg5Mzk5LC0xMy43NDM5MSB2IC03MC4xNDYyNyBjIDAsLTUuNTU3OTcxIDEuMzc2MTMxLC04Ljg1NjM0MyA3LjIwMjk5MSwtMTEuOTg0ODY4IEwgOTguNjUxODcxLDU3LjQzNTA2MyBjIDMuOTE5MTA5LC0xLjg5NDE0MSA5LjQ3MDE3OSwtMi45NzU3NzkgMTMuNjgzNTM5LC0wLjEzMjQxNSBsIDU2Ljk1MDg0LDMzLjMzMjkxMiBjIDQuNTY1NDgsMy40NjgzMjEgNS45NjA5OSw2Ljc5NzUwOCA2LjA4MTM3LDEyLjE1ODgzIHYgNzEuMzQxODkgYyAwLDYuNDIwMDQgLTEuODkyMTksOS4yODg3MSAtNS41OTMyNCwxMS4wNzY3OCBsIC04OC44NTM3OTYsNTIuNDc5MjMgYyAtNS42NTc1NywzLjIxMTE3IC03LjgxMjMwOCwwLjc2MDM2IC04LjAyMDIwNywtMy4xNzAxNiB6IiBzdHlsZT0ib3BhY2l0eToxO2ZpbGw6IzQyODVmNDtmaWxsLW9wYWNpdHk6MTtzdHJva2U6bm9uZTtzdHJva2Utd2lkdGg6MC4yNjQ1ODNweDtzdHJva2UtbGluZWNhcDpidXR0O3N0cm9rZS1saW5lam9pbjptaXRlcjtzdHJva2Utb3BhY2l0eToxIi8+JiN4YTsgICAgPHBhdGggZD0ibSAxMTcuNjE5MTQsMTM3LjM5MDYyIHYgMzIuOTI1NzkgaCAyMS4yMzI0MiB2IC05IGggLTEyLjIzMjQyIHYgLTE0LjkyNTc5IGggMTIuMjMyNDIgdiAtOSB6IE0gMTA2LjA5Mzc1LDkyLjk4NjMyOCBjIC0yMS4wMTQ5MDUsMCAtMzkuMTg3NSwxNi42NjQ1MDIgLTM5LjE4NzUsMzUuODM1OTQyIHYgMjkuODIyMjYgbCAwLjAwMiwwLjAzNzEgYyAwLjA1MjIxLDMuMTY1NTEgMS4xMjA0NDEsNi4yNzIyNiAzLjI4NzEwOSw4LjY0NDUzIDIuMTY2NjY5LDIuMzcyMjcgNS40NjU2MTQsMy44Mzc4OSA5LjAxNzU3OSwzLjgzNzg5IEggOTMuNzMwNDY5IFYgMTM3LjYzMjgxIEggNzUuOTA2MjUgdiAtOC44MTA1NCBjIDAsLTEzLjE5NTA4IDE0LjA2OTI1NCwtMjYuODM1OTQgMzAuMTg3NSwtMjYuODM1OTQgMTYuNjE2MzIsMCAyOS40OTIxOSwxNC40NDUzNiAyOS40OTIxOSwyNi4yODMyIHYgNDYuMjUzOTEgaCAtMjUuODczMDUgdiA5IGggMzQuODczMDUgdiAtNTUuMjUzOTEgYyAwLC0xNy44NTA2MSAtMTYuODczNDUsLTM1LjI4MzIwMiAtMzguNDkyMTksLTM1LjI4MzIwMiB6IG0gLTMwLjE4NzUsNTMuNjQ2NDgyIGggOC44MjQyMTkgdiAxNS41MzEyNSBoIC01LjUxNzU3OCBjIC0xLjMwMTEzLDAgLTEuODY4NDQ2LC0wLjM1Mzc2IC0yLjM3MzA0NywtMC45MDYyNSAtMC41MDQ2MDIsLTAuNTUyNDggLTAuOTEyOTYsLTEuNDczNDYgLTAuOTMzNTk0LC0yLjcyNDYxIHoiIHN0eWxlPSJjb2xvcjojMDAwMDAwO29wYWNpdHk6MTtmaWxsOiNmZmZmZmY7LWlua3NjYXBlLXN0cm9rZTpub25lIiBpZD0icGF0aDE5NjU1Ii8+JiN4YTsgIDwvZz4mI3hhOzwvc3ZnPg==;" vertex="1" parent="INDhxPRTLH_QmF5-pgII-23">
          <mxGeometry x="11" y="19" width="22.86" height="30" as="geometry" />
        </mxCell>
        <mxCell id="INDhxPRTLH_QmF5-pgII-26" value="&lt;h1 style=&quot;margin-top: 0px;&quot;&gt;Алексей&lt;/h1&gt;&lt;p&gt;Отвечает на звонки, консльтирует&lt;/p&gt;" style="text;html=1;whiteSpace=wrap;overflow=hidden;rounded=0;" vertex="1" parent="INDhxPRTLH_QmF5-pgII-23">
          <mxGeometry x="39" y="10" width="180" height="90" as="geometry" />
        </mxCell>
        <mxCell id="INDhxPRTLH_QmF5-pgII-34" value="" style="strokeColor=#999999;verticalLabelPosition=bottom;shadow=0;dashed=0;verticalAlign=top;strokeWidth=2;html=1;shape=mxgraph.mockup.misc.trashcanIcon;" vertex="1" parent="INDhxPRTLH_QmF5-pgII-23">
          <mxGeometry x="180" y="90" width="30" height="30" as="geometry" />
        </mxCell>
        <mxCell id="INDhxPRTLH_QmF5-pgII-31" value="" style="group" vertex="1" connectable="0" parent="1">
          <mxGeometry x="830" y="630" width="210.5" height="50" as="geometry" />
        </mxCell>
        <mxCell id="INDhxPRTLH_QmF5-pgII-28" value="" style="rounded=1;whiteSpace=wrap;html=1;arcSize=50;strokeColor=#314354;strokeWidth=1;fillColor=#647687;fontColor=#ffffff;whiteSpace=wrap;align=left;verticalAlign=middle;spacingLeft=0;fontStyle=1;fontSize=14;spacing=10;" vertex="1" parent="INDhxPRTLH_QmF5-pgII-31">
          <mxGeometry width="210.5" height="50" as="geometry" />
        </mxCell>
        <mxCell id="INDhxPRTLH_QmF5-pgII-29" value="&lt;span style=&quot;color: rgb(255, 255, 255); font-size: 35px; font-weight: 700; text-align: left;&quot;&gt;+&lt;/span&gt;" style="text;html=1;align=center;verticalAlign=middle;whiteSpace=wrap;rounded=0;fontFamily=Courier New;" vertex="1" parent="INDhxPRTLH_QmF5-pgII-31">
          <mxGeometry x="8" y="11" width="34.5" height="30" as="geometry" />
        </mxCell>
        <mxCell id="INDhxPRTLH_QmF5-pgII-30" value="Создать ассистента" style="text;html=1;align=center;verticalAlign=middle;whiteSpace=wrap;rounded=0;fontColor=#FFFFFF;fontSize=15;" vertex="1" parent="INDhxPRTLH_QmF5-pgII-31">
          <mxGeometry x="41.5" y="9" width="150" height="30" as="geometry" />
        </mxCell>
      </root>
    </mxGraphModel>
  </diagram>
</mxfile>
